<svg width="40" height="36" viewBox="0 0 40 36" fill="none" xmlns="http://www.w3.org/2000/svg">
<path d="M38.6962 1.2155C38.5748 1.10992 38.4271 1.03976 38.2689 1.01261C38.1108 0.985456 37.9483 1.00235 37.799 1.06146L2.1473 15.104C1.78387 15.2459 1.47613 15.503 1.27048 15.8363C1.06483 16.1697 0.972413 16.5613 1.00715 16.9521C1.0419 17.3429 1.20191 17.7118 1.46309 18.0031C1.72427 18.2944 2.07245 18.4924 2.45516 18.5672L12.2609 20.5042V31.4535C12.2608 31.8771 12.3866 32.2911 12.622 32.6422C12.8574 32.9934 13.1917 33.2657 13.582 33.4242C13.8332 33.5256 14.1013 33.5779 14.3719 33.5782C14.6552 33.5776 14.9354 33.5195 15.1959 33.4076C15.4564 33.2957 15.6919 33.1321 15.8883 32.9266L20.814 27.792L28.3785 34.4688C28.762 34.8092 29.2552 34.998 29.7665 35C29.9899 34.999 30.2117 34.9638 30.4245 34.8955C30.7727 34.7846 31.086 34.5836 31.3329 34.3127C31.5799 34.0417 31.7519 33.7103 31.8318 33.3516L38.9776 2.08309C39.0134 1.92638 39.0061 1.76282 38.9566 1.60997C38.907 1.45712 38.817 1.32075 38.6962 1.2155ZM2.40942 16.825C2.39911 16.7393 2.41827 16.6527 2.46373 16.5796C2.50919 16.5064 2.57819 16.4512 2.65923 16.423L33.3834 4.3211L12.8009 19.1674L2.72784 17.1773C2.64246 17.1647 2.56406 17.1227 2.50599 17.0585C2.44793 16.9942 2.4138 16.9117 2.40942 16.825ZM14.8768 31.9422C14.7795 32.0431 14.6546 32.1125 14.518 32.1417C14.3813 32.1709 14.2392 32.1585 14.1096 32.1061C13.98 32.0537 13.8688 31.9636 13.7902 31.8474C13.7116 31.7312 13.6691 31.5941 13.6682 31.4535V21.4851L19.7515 26.85L14.8768 31.9422ZM30.4597 33.0293C30.4324 33.1496 30.3745 33.2606 30.2916 33.3514C30.2087 33.4421 30.1036 33.5095 29.9869 33.5469C29.8701 33.5843 29.7457 33.5904 29.6259 33.5645C29.5061 33.5386 29.3951 33.4817 29.3039 33.3994L14.0957 19.9766L37.2642 3.26584L30.4597 33.0293Z" fill="black" stroke="black" stroke-width="0.5"/>
</svg>
